<svg width="167" height="230" viewBox="0 0 167 230" fill="none" xmlns="http://www.w3.org/2000/svg">
<path d="M0.583328 87.2465C0.583328 86.9003 0.583328 86.7272 0.583795 86.5808C0.736106 38.8307 37.3285 0.161448 82.5142 0.000493529C82.6527 0 82.8165 0 83.1441 0C83.4745 0 83.6397 0 83.7795 0.000497784C129.355 0.16284 166.263 39.1654 166.416 87.3272C166.417 87.4749 166.417 87.6495 166.417 87.9986V222.426L0.583328 221.678V87.2465Z" fill="url(#paint0_linear_9_6)" fill-opacity="0.52"/>
<path d="M166.417 222.426C166.417 226.356 129.294 229.167 83.5 229.167C37.7064 229.167 0.583328 225.607 0.583328 221.678L166.417 222.426Z" fill="#FFF8F8" fill-opacity="0.24"/>
<defs>
<linearGradient id="paint0_linear_9_6" x1="83.5" y1="0" x2="83.5" y2="229.167" gradientUnits="userSpaceOnUse">
<stop stop-color="#FFF8F8" stop-opacity="0.75"/>
<stop offset="0.245" stop-color="#FFF8F8" stop-opacity="0.27"/>
<stop offset="0.52" stop-color="#FFF8F8" stop-opacity="0.07"/>
<stop offset="1" stop-color="#FFF8F8" stop-opacity="0.5"/>
</linearGradient>
</defs>
</svg>
