<svg width="24" height="30" viewBox="0 0 24 30" fill="none" xmlns="http://www.w3.org/2000/svg">
<rect x="0.5" y="0.5" width="23" height="26" fill="#DA2A47" stroke="#F9E992"/>
<rect x="1" y="1" width="11" height="13" fill="#227A29"/>
<rect x="12" y="14" width="11" height="12" fill="#227A29"/>
<path d="M14.232 7.744C13.9973 7.64133 13.7627 7.59 13.528 7.59C13.308 7.59 13.088 7.72933 12.868 8.008C12.6627 8.28667 12.5233 8.69 12.45 9.218L11.306 17.38C11.1007 18.8613 10.5873 20.0273 9.766 20.878C8.95933 21.7287 7.94733 22.154 6.73 22.154C5.51267 22.154 4.56667 21.8167 3.892 21.142C3.232 20.4527 2.902 19.6387 2.902 18.7C2.902 17.7467 3.22467 16.94 3.87 16.28C4.53 15.62 5.35867 15.29 6.356 15.29C6.972 15.29 7.456 15.334 7.808 15.422L7.698 16.764C7.44867 16.7053 7.06 16.676 6.532 16.676C6.01867 16.676 5.55667 16.852 5.146 17.204C4.75 17.556 4.552 17.996 4.552 18.524C4.552 19.052 4.69867 19.4627 4.992 19.756C5.28533 20.0347 5.63733 20.174 6.048 20.174C7.28 20.174 7.99867 19.2647 8.204 17.446C8.6 13.8087 8.886 11.352 9.062 10.076C8.182 10.384 7.40467 10.538 6.73 10.538C5.65933 10.538 4.838 10.2887 4.266 9.79C3.70867 9.29133 3.43 8.63867 3.43 7.832C3.43 7.02533 3.716 6.39467 4.288 5.94C4.87467 5.47067 5.608 5.236 6.488 5.236C7.03067 5.236 7.808 5.40467 8.82 5.742C9.84667 6.07933 10.6387 6.248 11.196 6.248C12.1933 6.248 13.0293 5.99133 13.704 5.478C14.0707 5.99133 14.254 6.6 14.254 7.304C14.254 7.45067 14.2467 7.59733 14.232 7.744ZM5.608 8.426C5.608 8.646 5.72533 8.83667 5.96 8.998C6.20933 9.15933 6.576 9.24 7.06 9.24C7.55867 9.24 8.204 9.02 8.996 8.58C8.424 8.448 7.83733 8.30133 7.236 8.14C6.63467 7.964 6.27533 7.876 6.158 7.876C5.79133 7.876 5.608 8.05933 5.608 8.426ZM16.3088 22.154C15.4141 22.154 14.7101 21.9047 14.1968 21.406C13.6834 20.8927 13.4268 20.196 13.4268 19.316C13.4268 19.0813 13.8228 15.598 14.6148 8.866C14.8201 7.13533 15.3701 6.04267 16.2648 5.588C16.6754 5.368 17.1668 5.258 17.7388 5.258C19.6748 5.258 20.6428 6.15267 20.6428 7.942C20.6428 8.08867 20.6354 8.24267 20.6208 8.404C20.4741 10.3693 19.2421 12.3713 16.9248 14.41C16.8514 15.1287 16.7708 15.8253 16.6828 16.5C16.5068 18.0107 16.4188 18.8467 16.4188 19.008C16.4188 19.7707 16.7488 20.152 17.4088 20.152C18.1274 20.152 18.7948 19.7413 19.4108 18.92C20.0414 18.084 20.5254 17.0207 20.8628 15.73C20.9948 15.774 21.1781 15.8987 21.4128 16.104C21.6474 16.2947 21.8088 16.4633 21.8968 16.61C21.6621 17.8273 21.1341 18.9933 20.3128 20.108C19.9021 20.68 19.3814 21.1493 18.7508 21.516C18.0321 21.9413 17.2181 22.154 16.3088 22.154ZM17.1668 12.21C18.5161 10.7287 19.1908 9.40133 19.1908 8.228C19.1908 7.524 18.9268 7.172 18.3988 7.172C18.0614 7.20133 17.8341 7.42133 17.7168 7.832C17.6141 8.24267 17.5114 8.91 17.4088 9.834C17.3208 10.758 17.2621 11.33 17.2328 11.55L17.1668 12.21Z" fill="#F9E992"/>
</svg>
